<svg width="320" height="323" viewBox="0 0 320 323" fill="none" xmlns="http://www.w3.org/2000/svg">
<path d="M144.794 19.2706C153.926 14.1351 165.074 14.1351 174.206 19.2706L278.007 77.6486C287.454 82.9618 293.301 92.9579 293.301 103.797V219.203C293.301 230.042 287.454 240.038 278.007 245.351L174.206 303.729C165.074 308.865 153.926 308.865 144.794 303.729L40.9932 245.351C31.5458 240.038 25.6991 230.042 25.6991 219.203V103.797C25.6991 92.9579 31.5458 82.9618 40.9932 77.6486L144.794 19.2706Z" stroke="#34D399" stroke-width="29"/>
<path d="M96 47.5C96 39.4919 102.492 33 110.5 33V33C118.508 33 125 39.4919 125 47.5L125 199.5C125 207.508 118.508 214 110.5 214V214C102.492 214 96 207.508 96 199.5L96 47.5Z" fill="#34D399"/>
<path d="M110.5 176C102.492 176 96 169.508 96 161.5V161.5C96 153.492 102.492 147 110.5 147H209.5C217.508 147 224 153.492 224 161.5V161.5C224 169.508 217.508 176 209.5 176H110.5Z" fill="#34D399"/>
<path d="M195 124.5C195 116.492 201.492 110 209.5 110V110C217.508 110 224 116.492 224 124.5L224 274.5C224 282.508 217.508 289 209.5 289V289C201.492 289 195 282.508 195 274.5L195 124.5Z" fill="#34D399"/>
</svg>
